<svg xmlns="http://www.w3.org/2000/svg" xmlns:xlink="http://www.w3.org/1999/xlink" xml:space="preserve" version="1.1" style="shape-rendering:geometricPrecision;text-rendering:geometricPrecision;image-rendering:optimizeQuality;" viewBox="0 0 333.33 416.66249999999997" x="0px" y="0px" fill-rule="evenodd" clip-rule="evenodd"><defs><style type="text/css">
   
    .fil0 {fill:black}
   
  </style></defs><g><path class="fil0" d="M166.67 322.23c0,0 -24.14,0 -40.88,0 -76.95,0 -117.58,-52.46 -112.55,-128.53 2.13,-32.22 18.4,-152.58 142.27,-116.64 4.63,-35.21 -32.4,-51.69 -32.4,-51.69l0 -14.27c57.94,4.96 65.47,45.7 66.03,63.05 113.56,-25.58 128.89,88.34 130.96,119.56 5.04,76.07 -35.6,128.53 -112.55,128.53 -16.74,0 -40.88,0 -40.88,0zm19.41 -152.07l64.28 0 0 -49.9 -64.28 49.9zm-38.83 0l-64.28 0 0 -49.9 64.28 49.9zm110.64 44.02c0.72,-4.16 -2.06,-8.12 -6.22,-8.85 -4.16,-0.72 -8.12,2.06 -8.85,6.22l-3.49 19.58 -18.55 -5.73c-3.76,-1.16 -7.74,0.74 -9.25,4.28l-0.01 -0.01 -7.71 17.94 -15.92 -10.61c-3.31,-2.19 -7.71,-1.46 -10.15,1.57l-11.07 12.91 -11.22 -13.07c-2.53,-2.96 -6.84,-3.5 -10.01,-1.41l-15.92 10.61 -7.71 -17.94c-1.62,-3.78 -5.93,-5.57 -9.73,-4.13l-18.08 5.59 -3.49 -19.58c-0.73,-4.16 -4.69,-6.94 -8.85,-6.22 -4.16,0.73 -6.94,4.69 -6.22,8.85l5.01 28.11 0.02 -0c0.06,0.31 0.13,0.62 0.22,0.93 1.24,4.03 5.5,6.29 9.53,5.05l20.24 -6.26 8.63 20.07 0.01 -0c0.18,0.41 0.39,0.81 0.65,1.2 2.33,3.52 7.06,4.48 10.58,2.15l17.93 -11.95 12.55 14.62c0.27,0.32 0.57,0.62 0.9,0.91 3.2,2.74 8.02,2.36 10.76,-0.84l12.61 -14.69 17.57 11.71c0.47,0.35 0.99,0.66 1.56,0.9 3.88,1.67 8.37,-0.13 10.04,-4l8.63 -20.07 19.74 6.1c0.46,0.17 0.93,0.31 1.43,0.4 4.16,0.72 8.12,-2.06 8.85,-6.22l5.01 -28.11z"/></g><text x="0" y="348.33" fill="#000000" font-size="5px" font-weight="bold" font-family="'Helvetica Neue', Helvetica, Arial-Unicode, Arial, Sans-serif">Created by YANDI RS</text><text x="0" y="353.33" fill="#000000" font-size="5px" font-weight="bold" font-family="'Helvetica Neue', Helvetica, Arial-Unicode, Arial, Sans-serif">from the Noun Project</text></svg>