<?xml version="1.0" encoding="utf-8"?>
<!-- Generator: Adobe Illustrator 26.3.1, SVG Export Plug-In . SVG Version: 6.00 Build 0)  -->
<svg version="1.1" id="Camada_1" xmlns="http://www.w3.org/2000/svg" xmlns:xlink="http://www.w3.org/1999/xlink" x="0px" y="0px"
	 viewBox="0 0 1366 133" style="enable-background:new 0 0 1366 133;" xml:space="preserve">
<style type="text/css">
	.st0{fill-rule:evenodd;clip-rule:evenodd;fill:#C1E1E5;fill-opacity:0.26;}
</style>
<path class="st0" d="M1366,0H0v27.7c79,22.3,172.2,42,261.7,57.8C372.2,105,482,108.9,592.4,112.9l0,0h0c42.9,1.5,85.8,3.1,129,5.5
	c28.6,1.6,57.8,3.7,87,5.8l0,0c88.1,6.2,175.9,12.5,245.5,6.4c65.4-5.7,96.2-22.3,127.2-38.9c10.3-5.6,20.7-11.1,32.4-16.3
	c17.3-7.6,27.8-16.6,38.3-25.5c13.8-11.7,27.6-23.4,56.6-31.9c16.2-4.8,35.9-8.7,57.7-12.2V0z"/>
</svg>
