<?xml version="1.0" encoding="utf-8"?>
<!-- Generator: Adobe Illustrator 26.3.1, SVG Export Plug-In . SVG Version: 6.00 Build 0)  -->
<svg version="1.1" id="Camada_1" xmlns="http://www.w3.org/2000/svg" xmlns:xlink="http://www.w3.org/1999/xlink" x="0px" y="0px"
	 viewBox="0 0 692.8 707.7" style="enable-background:new 0 0 692.8 707.7;" xml:space="preserve">
<style type="text/css">
	.st0{fill:#FFB6B6;}
	.st1{fill:#2F2E41;}
	.st2{fill:#C1E1E5;}
	.st3{fill:#E6E7E8;}
	.st4{fill:#3F3D56;}
	.st5{fill:#FFFFFF;}
	.st6{fill:#F50057;}
	.st7{fill:#FF6584;}
	.st8{opacity:0.35;}
</style>
<path class="st0" d="M433.9,169.8c-5.9-3.1-13.3-0.8-16.4,5.1c-0.3,0.6-0.6,1.3-0.8,2l-77.1,44.8l11.5,15.9l74.4-45.1
	c6.6,1.6,13.1-2.4,14.7-9C441.5,178,438.9,172.4,433.9,169.8z"/>
<path class="st1" d="M349.2,205.8l-11.2,7.6l-6,4.1l-3.9,2.7c-1.7,0.8-3.2,2-4.5,3.4c-5.1,5.9-4.5,14.8,1.3,19.9
	c4.2,3.7,10.3,4.5,15.4,2.1l24.5-7.6c1.4-0.4,2.5-1.5,3.1-2.8c0.6-1.4,7.6-6.5,7-7.8l3-2.1l4.5-2.4l16.4-11.7l0,0l-4.6-9.5l0,0
	l0.2-12.8c-0.6-1.3-39.5,16.8-40.9,16.4C351.9,204.7,350.4,204.9,349.2,205.8z"/>
<path class="st2" d="M305.6,205.8c-5.7-9.4-12.4-19.4-22.9-22.5c-12.2-3.5-24.7,3.5-35.3,10.5c-31.8,20.8-62.4,43.3-91.6,67.5l0,0.4
	c22.8-1.6,45.6-3.1,68.4-4.7c16.5-1.1,33.5-2.4,48.1-10.2c5.5-3,10.9-6.9,17.2-7.2c7.8-0.3,14.6,5.1,19.9,10.8
	c31.5,33.6,40.6,84.9,76,114.4C363,309.7,336.3,256.6,305.6,205.8z"/>
<path class="st2" d="M499.4,490.5c-3.5-4.4-4.9-5.4-8.3-9.9c-28-36.2-54.3-73.6-78.9-112.3c-16.7-26.2-32.6-53-47.7-80.3
	c-7.2-13-14.2-26-20.9-39.2c-5.3-10.2-10.4-20.5-15.4-30.8c-1.4-2.9-2.8-5.9-4.2-8.9c-3.3-7-6.5-14-9.9-20.9
	c-3.9-7.9-8.7-16.1-15.9-21.4c-3.3-2.5-7.2-4-11.3-4.4c-5.9-0.4-11.3,2-16.4,4.7c-37.3,19.6-72.2,43.7-103.8,71.6
	c-31.7,27.8-60,59.2-84.4,93.6c-0.7,1.1-2.5,0-1.8-1c3-4.2,6-8.3,9.1-12.4c38.3-50.9,85.3-94.8,138.8-129.4
	c9-5.8,18.2-11.4,27.5-16.7c4.7-2.7,9.4-5.3,14.2-7.8c4.7-2.4,9.7-4.6,15.1-4.7c18.3-0.3,27.8,20.5,34.3,34.4
	c2,4.4,4.1,8.8,6.2,13.1c7.9,16.6,16.2,33,24.7,49.3c5.3,10,10.7,20,16.2,30c17.1,30.9,35.3,61.2,54.6,90.9
	c25.5,39.3,50.8,74,79.9,110.8C501.6,490,500.2,491.5,499.4,490.5z"/>
<path class="st2" d="M164.5,228.6c-1.1-1.2-2.1-2.4-3.2-3.6c-8.4-9.3-17.5-18.6-29.1-23.9c-5.5-2.6-11.6-4-17.7-4.1
	c-6.3,0.2-12.6,1.5-18.4,4c-2.8,1.1-5.5,2.4-8.1,3.7c-3,1.5-6,3.2-9,4.8c-5.6,3.1-11.1,6.3-16.5,9.7c-10.8,6.7-21.3,13.9-31.5,21.6
	c-5.3,4-10.4,8.1-15.5,12.4c-4.7,4-9.3,8-13.8,12.2c-1,0.9-2.4-0.5-1.4-1.4c1.2-1.1,2.4-2.2,3.6-3.3c3.4-3.1,6.8-6.1,10.3-9
	c6.4-5.4,12.9-10.6,19.6-15.5c10.4-7.7,21.2-14.9,32.4-21.6c5.6-3.3,11.2-6.5,17-9.6c1.7-0.9,3.5-1.8,5.2-2.7c4-2,8.2-3.7,12.5-5.1
	c6.1-2,12.5-2.6,18.8-1.9c6.1,0.9,12,2.9,17.4,6c11.4,6.4,20.2,16.2,28.8,25.8C166.9,228.2,165.4,229.6,164.5,228.6z"/>
<path class="st2" d="M398,325.5l27.3-10l13.6-5c4.4-1.8,8.8-3.3,13.4-4.6c4-1.1,8.2-1.1,12.1,0.2c3.5,1.3,6.7,3.3,9.4,5.9
	c2.8,2.6,5.4,5.3,7.7,8.3c3,3.5,5.9,7.1,8.8,10.7c12.1,14.7,24,29.5,35.9,44.4c11.9,14.9,23.7,29.8,35.4,44.8
	c11.8,15,23.4,30.1,35,45.3c1.4,1.9,2.8,3.7,4.3,5.6c0.8,1,2.6,0,1.8-1c-11.7-15.3-23.5-30.6-35.3-45.7
	c-11.9-15.2-23.8-30.4-35.9-45.5c-12-15.1-24.2-30.1-36.4-45.1c-3-3.7-6.1-7.4-9.1-11.2c-2.6-3.1-5.1-6.3-7.9-9.2
	c-5.2-5.4-11.7-10.1-19.4-10.2c-4.6-0.1-9,1.4-13.2,2.9c-4.6,1.7-9.1,3.3-13.7,5L404.3,321l-6.9,2.5
	C396.2,323.9,396.7,325.9,398,325.5L398,325.5z"/>
<path class="st2" d="M128.6,212.9c-13.9-7.1-31.6-5.7-44.4,3.2c24.3,4.2,48.4,9.8,72,16.8C146.5,227.1,138.8,218.1,128.6,212.9z"/>
<path class="st3" d="M84.1,216l-2.7,2.2c0.9-0.8,1.8-1.5,2.8-2.1C84.2,216.1,84.2,216.1,84.1,216z"/>
<path class="st2" d="M472.7,325.6c-2.7-3.3-5.6-6.7-9.6-8l-3.8,0.1c28.6,50.5,67.1,94.6,113.4,129.6
	C539.4,406.7,506,366.1,472.7,325.6z"/>
<path class="st2" d="M203.7,437.3c16.1,10.1,36.4,10.4,52.8,0.7c0.6-3,1.3-6.1,1.9-9.1c3.7,3.9,11.1,3.1,14-1.4
	c-15.1-32.3-37.4-60.7-65-83.3c8,5,19.5,3.1,25.5-4.1c9-3.1,17.6-7.4,25.4-12.8c-26.8-43.1-78-77.3-90.1-126.6
	c-36.6,39.3-40.7,53.1-77.2,92.4c0,0-34.6,31.2-42.1,48c1.8,1.9,18.3,6.6,18.9,10.4c12.7,0.9,25.2-3.7,34.3-12.7
	c-23.5,25-47.4,50.5-61.8,81.7c-1.3,2.8-2.5,6-1.4,8.9c0.9,2.3,4,3.6,6,2.7c-2.4,2.3-4.3,5.1-5.7,8.1c8.6,5.5,19.8,4.4,27.2-2.7
	c-2,3.7-4,7.5-6,11.2c13.8,5,29,4.4,42.3-1.8c-15.9,10-55.6,44.5-64.2,61.1c-3.9,7.5,36.3,16.6,45.4,16.2c9.1-0.4,17.5-4.3,25.7-8.3
	c-0.4,3.7,0.3,7.5,2,10.8c9,2.2,18.6,0.7,26.5-4.3c-0.5,10.1,16.9,14.1,20.8,4.8c-1.5,5.5,5.7,8.8,11.3,9.8
	c15.9,2.8,35.1,4.5,45.4-7.9c11.9,12,33.7,11.8,45.5-0.2c-1.2,2.1,0.6,5.5,3.3,6.1c3.1,0.6,6.1-1.2,8.8-3c11.9-8,23.9-16,35.8-24
	C273.8,484.5,238.8,460.9,203.7,437.3z"/>
<rect x="147.7" y="506.8" class="st2" width="15.8" height="130.6"/>
<path class="st2" d="M625.5,497.8c-52.4,123.4-174.6,209.9-317.1,209.9c-115.4,0-217.5-56.8-280-143.9c12.7-3.6,25.5-5.2,38.6-2.7
	c31.5,6.2,54.5,35.1,85.7,42.6c27,6.4,55.1-4.4,79-18.5c23.9-14.1,46-31.9,72.1-41.3c17.3-6.2,42.6-4.5,46.8,13.4
	c1.9,8.2-0.6,19.2,6.8,23.2c58.6-21.1,117.3-42.3,175.9-63.5c19-6.9,38.1-13.7,57.9-17.9C602.4,496.6,614.5,495.3,625.5,497.8z"/>
<path class="st4" d="M597.4,294.2c18.1,11.7,43,12.1,61.4,0.8c0.7-3.5,1.5-7.1,2.2-10.6c4.3,4.5,12.9,3.7,16.2-1.6
	c-17.6-37.6-43.5-70.7-75.6-96.9c9.3,5.8,22.7,3.6,29.7-4.8c10.5-3.6,20.5-8.6,29.6-14.9c-31.2-50.1-90.7-90-104.8-147.3
	c-42.5,45.7-47.3,61.8-89.9,107.5c0,0-40.3,36.4-49,55.9c2.1,2.2,21.3,7.6,22,12c14.8,1.1,29.4-4.3,39.9-14.8
	c-27.3,29.1-55.2,58.8-71.9,95c-1.5,3.3-2.9,7-1.7,10.4c1,2.7,4.6,4.2,7,3.2c-2.8,2.7-5,5.9-6.6,9.4c9.5,6.4,23.6,5,31.6-3.2
	c-2.3,4.4-4.7,8.7-7,13.1c16.1,5.9,33.8,5.1,49.3-2.1c-18.5,11.6-64.7,51.8-74.7,71.1c-4.6,8.8,42.3,19.3,52.8,18.9
	c10.5-0.4,20.4-5.1,29.9-9.6c-0.5,4.3,0.4,8.7,2.4,12.6c10.5,2.6,21.6,0.8,30.8-5c-0.6,11.7,19.6,16.4,24.3,5.6
	c-1.7,6.3,6.7,10.3,13.2,11.4c18.5,3.3,40.8,5.3,52.8-9.1c13.8,14,39.2,13.7,53-0.2c-1.4,2.4,0.7,6.4,3.8,7.1
	c3.6,0.7,7.1-1.4,10.2-3.4c13.9-9.3-10.8-25.4,3.1-34.7C640.3,342.4,638.2,321.7,597.4,294.2z"/>
<polygon class="st4" points="549.4,510.8 532.4,517.8 532.2,375.1 550.6,375.1 "/>
<circle class="st2" cx="43.7" cy="195" r="5.6"/>
<circle class="st2" cx="22.7" cy="325.7" r="5.6"/>
<circle class="st2" cx="34.6" cy="420.3" r="5.6"/>
<circle class="st3" cx="484.6" cy="133.7" r="5.6"/>
<circle class="st5" cx="104" cy="352.8" r="5.6"/>
<circle class="st5" cx="192.1" cy="380.7" r="5.6"/>
<ellipse transform="matrix(0.1602 -0.9871 0.9871 0.1602 164.8408 734.3796)" class="st5" cx="514" cy="270.3" rx="5.6" ry="5.6"/>
<circle class="st3" cx="541.4" cy="167.5" r="5.6"/>
<circle class="st5" cx="439.4" cy="264.7" r="5.6"/>
<circle class="st5" cx="186.4" cy="308.7" r="5.6"/>
<circle class="st2" cx="197.7" cy="167.5" r="5.6"/>
<circle class="st2" cx="374.6" cy="68.2" r="5.6"/>
<circle class="st5" cx="344.5" cy="287.3" r="5.6"/>
<path class="st2" d="M388.6,142c0,3.1-2.5,5.6-5.6,5.6s-5.6-2.5-5.6-5.6s73-142,76.1-142S388.6,138.8,388.6,142z"/>
<circle class="st2" cx="92.7" cy="156.2" r="5.6"/>
<circle class="st5" cx="369" cy="451.1" r="5.6"/>
<circle class="st2" cx="450.7" cy="456.7" r="5.6"/>
<circle class="st5" cx="308.4" cy="352.8" r="5.6"/>
<circle class="st3" cx="541.4" cy="337.5" r="5.6"/>
<circle class="st6" cx="676.8" cy="406.9" r="16"/>
<circle class="st7" cx="578" cy="418.2" r="16"/>
<circle class="st7" cx="401.4" cy="386.4" r="16"/>
<circle class="st6" cx="392" cy="281.6" r="16"/>
<circle class="st6" cx="676.8" cy="276" r="16"/>
<circle class="st7" cx="660.9" cy="166.2" r="16"/>
<circle class="st5" cx="297.1" cy="412.6" r="5.6"/>
<circle class="st5" cx="98.3" cy="485.4" r="5.6"/>
<circle class="st5" cx="173.5" cy="490.8" r="5.6"/>
<circle class="st5" cx="285.8" cy="506.8" r="5.6"/>
<circle class="st5" cx="262.1" cy="234.2" r="5.6"/>
<circle class="st2" cx="308.4" cy="99.8" r="5.6"/>
<circle class="st5" cx="136.7" cy="276" r="5.6"/>
<polygon class="st0" points="350.6,600.1 363.9,600.1 370.2,548.8 350.6,548.8 "/>
<polygon class="st0" points="221,573.7 232.5,580.5 264.1,539.6 247.2,529.5 "/>
<polygon class="st0" points="356.5,271.6 363,312.9 301.5,313.7 309.6,274.1 "/>
<path class="st6" d="M363.2,312.4l17.6,42.6l1.3,113.9l-15,108.8h-16.6l-6.8-107L327,397.5L310.5,474L259.2,549h-25.2l46.3-82.6
	l5.4-90c0,0-3.3-38.2,13.8-60.7l4.2-12L363.2,312.4z"/>
<path class="st4" d="M364.1,233.6c0-0.4-0.1-0.8-0.2-1.1c-2.8-18.5-20-31.3-38.5-28.7c-8.4,1.3-16,5.5-21.4,12v0
	c-0.3,0.3-0.5,0.7-0.8,1c-0.5,0.6-0.9,1.2-1.3,1.9c-3.8,5.8-5.8,12.6-5.7,19.5v0c0.1,2.7,0.4,5.3,1.1,7.9c1.2,4.5,2.1,9.1,2.8,13.7
	c0.5,2.9,0.8,5.8,1.1,8.6c0.2,1.4,0.3,2.8,0.4,4.2v0c0.5,6.7,0.7,12.8,0.9,17.4c0.1,2.5,0.1,4.7,0.3,6.3c0,0.1,0,0.2,0,0.3
	c0.1,1.1,0.6,2.1,1.3,2.9c0.1,0.1,0.2,0.2,0.3,0.3c0.8,0.7,1.7,1.2,2.8,1.4c0.4,0.1,0.7,0.1,1.1,0.1h0.1l10.3-4.8l8.1-3.8l27.6-12.9
	c2.3,0,4.4-1.5,5.1-3.7v0c0-0.1,0.1-0.3,0.1-0.4c1.5-5.8,4.1-12.1,5.1-22.2c0.1-1.4,0.2-2.9,0.3-4.6v0
	C364.9,244,364.7,238.8,364.1,233.6z"/>
<path class="st1" d="M345.2,208c1.7-4.4-1.6-9.5-5.9-11.5s-9.2-1.7-13.9-1.5l-11.9,0.7c1.1,3.3,0.5,6.9-1.6,9.7
	c-7-1.9-14.5,3.2-17.6,9.8s-3.1,14.2-2.9,21.5c0.2,8.5-6.1,67.8,1.5,71.5c-3.9,1-1.8,0.4-4.7,3.2s-4.6,7.2-3.1,11s0.5,8,3.8,5.8
	c-4.2,3-9.2,71.3-12.8,75c-1.7,1.7-3.4,3.8-2.4,6.5c0.4,1.1,1.3,2,2.3,2.6c2.8,1.6,6,1.2,9,0.8c-5.4,1.2-3,2.6-6.3,7.4
	c-1.6,2.3-3.2,5.3-2.1,7.9c1.7,4.3,6.3,5.1,10.3,5.4c16.1,1.1,57.2-0.1,73.2-1.8c6.5-0.7,13-0.9,19.5-0.6c9.1,0.5,9.7-62.2,6.2-70.7
	c-2.7-6.7-15.4-41.6-14.3-48.8c1.3-8.2-0.7-51.1-2.5-59.2c-1.7-7.4-2.1-18.4-6.8-24.3c-6.2-7.8-15.7-11.9-15.3-21.9"/>
<circle class="st0" cx="325.8" cy="172.3" r="26"/>
<path class="st1" d="M203.2,590l8.2,4.9l6.1-6.9l-0.8,10l21.6,12.8c2.3,1.4,5.2,1.1,7.2-0.8c1.7-1.7,2.1-4.2,1.1-6.4l-10.3-22.3
	l75.8-101.5c2-2.7,1.5-6.5-1.2-8.5c-1.3-1-3-1.4-4.6-1.1l-37.2,6.2L203.2,590z"/>
<path class="st1" d="M343.5,623.2h9.6l1.7-9l4.4,9h25.1c2.7,0,5.1-1.7,5.8-4.3c0.6-2.3-0.3-4.7-2.3-6.1l-20.2-14l18-128.4
	c0.4-3.2-1.8-6.2-5-6.6c-1.5-0.2-3.1,0.2-4.3,1.1l-33.7,24.8L343.5,623.2z"/>
<path class="st1" d="M376.8,486.7c1.3-3.5,4.7-6.2,7.8-8.1c1.4-0.8,3.1-1.7,4.7-1.4c1.9,0.3,2.3,2.2,2.2,3.8
	c-0.4,7.7-8.3,13.2-13.7,17.6l-6.2,5.1l-3,2.5l-1.7,1.4c-1,0.8-0.1,0.1,0,1.5l-0.4,1.1l-0.4,0.3c1.9-0.4,1.1-3.3-0.8-2.9
	c-0.9,0.2-1.5,1-1.3,1.9c0,0.2,0.1,0.3,0.2,0.5c0.5,0.8,1.5,1.2,2.4,1.2c1.2-0.1,2.1-1.1,3-1.9l4-3.3c4.5-3.7,9.3-7.3,13.5-11.4
	c3.5-3.4,6.6-7.5,7.3-12.5c0.3-2.4,0-5.1-2-6.7c-1.8-1.3-4.2-1.6-6.4-0.8c-2.6,1-5,2.5-7,4.3c-2.3,1.8-4.1,4.2-5.2,6.9
	C373.2,487.7,376.1,488.5,376.8,486.7L376.8,486.7z"/>
<path class="st1" d="M382.6,498c3.4,1.4,6.2,4.8,8,8c0.9,1.4,1.4,3,1.4,4.7c-0.3,1.9-2.2,2.4-3.8,2.3c-7.7-0.5-13.1-8.5-17.4-13.9
	l-5.1-6.3l-2.5-3.1l-1.4-1.7c-0.1-0.1-0.3-0.5-0.5-0.6c-0.1,0.1-0.1,0.2,0,0.1c0.2-0.4-0.1-0.2-1,0.5l-1.1-0.4l-0.3-0.4
	c0.4,1.9,3.3,1.1,2.9-0.8c-0.2-0.9-1-1.5-1.9-1.3c-0.2,0-0.3,0.1-0.5,0.2c-0.8,0.5-1.3,1.5-1.2,2.4c0.1,1.2,1.1,2.2,1.8,3l3.2,4
	c3.7,4.6,7.2,9.4,11.2,13.7c3.3,3.6,7.4,6.7,12.4,7.5c2.4,0.3,5.1,0,6.7-2c1.3-1.8,1.6-4.2,0.8-6.3c-1-2.6-2.4-5-4.3-7.1
	c-1.8-2.3-4.2-4.2-6.9-5.3C381.6,494.4,380.8,497.3,382.6,498L382.6,498z"/>
<path class="st1" d="M305.3,482.9c2.3-2.9,6.4-4.5,9.9-5.4c1.5-0.4,3.5-0.7,5,0c1.7,0.8,1.6,2.8,1,4.3c-2.6,7.3-11.8,10.1-18.3,12.8
	l-7.5,3l-3.6,1.5l-2,0.8c-1.2,0.5-0.1,0.1-0.4,1.4l-0.7,0.9l-0.4,0.1c1.9,0.2,2-2.8,0.1-3c-0.9-0.1-1.7,0.5-1.9,1.4
	c0,0.2,0,0.4,0,0.5c0.3,0.9,1,1.6,2,1.9c1.2,0.3,2.4-0.4,3.4-0.9l4.8-1.9c5.4-2.2,11.1-4.2,16.3-6.9c4.4-2.2,8.6-5.2,10.7-9.8
	c1-2.2,1.5-4.9,0.1-7c-1.4-1.8-3.6-2.8-5.8-2.6c-2.8,0.2-5.5,0.9-8,2c-2.7,1.1-5.2,2.8-7.1,5.1C301.6,482.8,304.1,484.4,305.3,482.9
	L305.3,482.9z"/>
<path class="st1" d="M307.4,495.4c2.9,2.3,4.4,6.4,5.2,10c0.5,1.6,0.5,3.3-0.1,4.9c-0.8,1.7-2.8,1.6-4.3,1c-7.2-2.8-10-12-12.5-18.5
	l-2.9-7.5l-1.4-3.6l-0.8-2.1c-0.1-0.2-0.1-0.5-0.3-0.7c-0.1,0.1-0.1,0.1-0.1,0.1c0.3-0.3-0.1-0.2-1.1,0.2l-0.9-0.7l-0.1-0.4
	c-0.2,1.9,2.8,2,3,0.1c0.1-0.9-0.5-1.7-1.4-1.9c-0.2,0-0.4,0-0.5,0c-0.9,0.3-1.6,1-1.9,2c-0.3,1.2,0.4,2.4,0.8,3.4l1.9,4.8
	c2.1,5.5,4.1,11.1,6.6,16.4c2.1,4.4,5.1,8.7,9.6,10.8c2.2,1,4.8,1.5,7,0.1c1.8-1.4,2.8-3.5,2.7-5.8c-0.1-2.8-0.8-5.5-2-8
	c-1-2.8-2.7-5.2-5-7.1C307.6,491.7,306,494.2,307.4,495.4L307.4,495.4z"/>
<circle class="st6" cx="433.8" cy="177.9" r="16"/>
<path class="st0" d="M421.5,156.2c-6.4-1.9-13.2,1.8-15.1,8.2c-0.2,0.7-0.3,1.4-0.4,2.1l-67,58.9l14.4,13.3l64.2-58.6
	c6.7,0.3,12.4-4.9,12.7-11.7C430.5,162.8,426.9,157.7,421.5,156.2L421.5,156.2z"/>
<path class="st1" d="M345.4,207.9l-9.5,9.6l-5.1,5.2l-3.3,3.4c-1.5,1.1-2.8,2.6-3.7,4.2c-3.9,6.8-1.6,15.4,5.2,19.3
	c4.9,2.8,11,2.5,15.5-0.9l22.5-12.2c1.3-0.7,2.2-1.9,2.5-3.4c0.3-1.5,6.2-7.8,5.3-9l2.5-2.7l4-3.2l13.8-14.7l0,0l-6.4-8.5l0,0
	l-2.3-12.6c-0.9-1.2-35.5,24.1-37,24C347.9,206.3,346.4,206.9,345.4,207.9z"/>
<circle class="st5" cx="314" cy="308.7" r="5.6"/>
<circle class="st5" cx="543.6" cy="68.2" r="5.6"/>
<circle class="st5" cx="297.1" cy="399" r="5.6"/>
<circle class="st5" cx="364.2" cy="510" r="5.6"/>
<circle class="st5" cx="450.7" cy="572.1" r="5.6"/>
<circle class="st5" cx="313.3" cy="574.5" r="5.6"/>
<circle class="st5" cx="155.6" cy="623.2" r="5.6"/>
<circle class="st5" cx="344.5" cy="352.8" r="5.6"/>
<circle class="st6" cx="305.4" cy="120.5" r="5.6"/>
<path class="st6" d="M499.9,86.8c20.1,18.5,50.6,23.6,76.1,14.6c7.2-2.6,14-6.3,20.1-11.1l-2.4-1.8c-7.8,16.1-20.5,29.4-36.3,37.8
	c-16.8,8.8-36.1,11.5-54.6,7.7c-10.7-2.2-21-6.5-30-12.6c-1-0.7-2.7,0.5-2.2,1.7c9.3,22.4,19.8,45,37.5,62
	c15.5,14.9,36.4,25,58.3,22.2c11.6-1.5,22.7-6.3,30.9-14.7l-2.4-0.3c5.7,11.9,4.3,26-1.4,37.7c-6.2,12.7-17,22.1-30,27.5
	c-13.7,5.8-29,7.3-43.8,6.3c-32.4-2.3-63-15.6-86.8-37.6c-0.6-0.6-1.6-0.5-2.1,0.1c-0.4,0.5-0.5,1.2-0.2,1.8
	c8.9,18.3,17.8,36.7,28.5,54.1c10,16.3,21.5,31.7,35.4,44.8c13,12.2,28.1,22.4,44.9,28.8c15.9,6.1,33.1,7.9,50,5.3
	c16.1-2.5,31.7-9.5,43.6-20.8c1.5-1.4,2.9-3,4.3-4.5l-2.6-1.1c-1.3,14.2-9.4,26.9-20.1,35.9c-12.1,10.1-27.6,15.2-43.1,17.2
	c-15.9,1.9-32,1.4-47.8-1.3c-15.3-2.5-30.3-7-44.5-13.2c-16.1-7-31.1-16.3-44.6-27.6c-1.5-1.2-3.6,0.9-2.1,2.1
	c24.9,20.8,54.6,34.8,86.4,40.8c16.1,3.2,32.5,4,48.9,2.6c16.2-1.6,32.6-6.1,45.7-15.9c13-9.7,22.8-24.1,24.2-40.6
	c0-0.8-0.7-1.5-1.5-1.5c-0.4,0-0.7,0.2-1,0.4c-10.6,12.2-25.3,20.1-41,23.5c-16.1,3.5-32.9,2.6-48.6-2.5
	c-16.8-5.4-32-14.9-45.2-26.5c-13.9-12.3-25.5-27-35.5-42.6c-10.7-16.7-19.6-34.5-28.3-52.3c-1.1-2.2-2.2-4.5-3.3-6.7l-2.4,1.8
	c23.4,21.6,53.2,35,84.9,38.2c29.1,2.8,63.2-4.5,78.7-31.9c7.5-13.3,9.7-29.8,3-43.8c-0.4-0.7-1.4-1-2.1-0.5
	c-0.1,0.1-0.2,0.1-0.3,0.2c-14.4,14.7-37.1,17.5-56,10.9c-20.8-7.2-36.7-24-48-42.5c-7.1-11.6-12.6-24.1-17.8-36.6l-2.2,1.7
	c16.8,11.3,36.9,16.3,57,14.3c29.5-3.2,55.2-21.5,68.1-48.2c0.4-0.7,0.1-1.6-0.6-2c-0.6-0.3-1.3-0.2-1.7,0.2
	c-20.4,16.2-50.1,18.8-73.7,8.4c-6.7-2.9-12.9-6.9-18.2-11.9C500.6,83.3,498.4,85.5,499.9,86.8L499.9,86.8z"/>
<g class="st8">
	<path class="st5" d="M632.9,269.2c9.6-4.2-9.9-6.7-32.1-7.5s-49-0.8-63.2-3c-13.7-2.2-12.7-6.1-13.9-9.7s-6.4-7.2-27.8-8
		c-26.7-1-70.6,2.8-90.8,0.5c-18.8-2.1-7.6-8.8-35-9.1c-15.6-0.1-35.8,2.1-53.2,2.6c-16.3,0.5-28.4-0.5-36.9-1.9s-14.4-3.2-23.9-4.4
		c-25.1-3.2-74.1-2.1-117.9,2s-81.3,10.9-102.4,17.6s-27,13.3-22.1,18.9c3.1,3.6,11.2,6.9,30.7,8.4c36.5,2.7,101.6-1.9,139.3,0.5
		c21,1.4,30.4,4.7,48.8,6.6c19.8,2,48.9,2.1,77.4,2c59.4-0.1,120.3-0.7,182.4-1.8c25.9-0.5,53.1-1.1,80.7-3.3
		c27.6-2.2,55.8-6.5,61.6-10.6"/>
</g>
<path class="st6" d="M347.8,200c-2.2-3.2-6.7-3.5-10.5-3.5l-23-0.1l0-0.1c-2.8-2.6-7.9-0.3-8.8,3.4c-0.8,3.7,1.6,7.5,4.9,9.5
	c3.3,1.9,7.2,2.4,10.9,2.9c-1.3,5.7-4.8,10.7-8.7,15s-8.2,8.3-11.8,13s-6.3,10.2-6.3,16c0,5.9,3.2,12,8.7,14
	c5.5,2,12.7-1.4,13.5-7.2c0.4-2.7-0.6-5.4-0.8-8.1c-0.4-5.3,2-10.4,4.4-15.2c4-8.2,8.3-16.7,15.7-22.1c3.2-2.3,7-4,9.7-6.9
	C348.6,207.9,350.1,203.2,347.8,200z"/>
<path class="st1" d="M303.8,182.1c-0.1,3.2-2.1,5.9-3.6,8.6c-5.4,10-5.5,22-0.3,32.1c2.1,4,5.1,7.6,6.7,11.8c1.5,3.6,1.8,8-0.1,11.4
	c-4.6-4.4-6.8-2.1-12-5.9c2,5.7,0.3,5.9,2.3,11.6c-8.8,2.5-17.6,5-26.4,7.5c11-8.5,14.9-24.8,9.1-37.4c-3.2-6.9-9-12.6-11-19.9
	c-3.3-11.5,3.3-23.4,14.8-26.7c4.9-1.4,10.2-1,14.9,1.1C301.1,175.5,303.9,179,303.8,182.1z"/>
<path class="st1" d="M336.4,143.1c-3.5-7.6-12.7-6.1-21.1-5.1s-15.7,6.9-19.4,14.4c-3.7,7.5-4.1,16.5-1.9,24.6
	c1.4,5.5,4.1,10.8,8.5,14.3s25.1,11.9,26.8,4.7c-2.2,9.4-7.8,14.8-1.3,22c3.3-10,17.4-19.5,20.7-29.5c0.5-1.5-1.6-19.2-1.1-20.7
	c1.1-3.2,2.1-6.3,2.9-9.6c1-4.1,1.3-8.8-1.2-12.1s-8.9-3.5-10.2,0.5"/>
<path class="st7" d="M332.2,174.9l-1.1-7.1c0.8-8.8-0.5-22.8,5.3-24.7l3.5,3.5C337.7,147.4,333.5,160.6,332.2,174.9z"/>
<path class="st6" d="M348.9,141.8c3.7-1.8,8.6,1.1,9.5,5.1c0.1,0.4,0.1,0.8,0,1.2c-0.3,0.6-0.8,1.1-1.5,1.4
	c-19,9.9-39.1,17.3-60,22.1c-1.9,0.6-3.9,0.7-5.8,0.3c-3-0.9-4.6-4.1-3.7-7.1c0.7-2.1,2.4-3.6,4.6-3.9c-3.7-1.7-5.7-5.9-6.3-9.9
	c-1.1-7.3,1.8-14.8,6.8-20.2c5.2-5.3,12-8.7,19.3-9.7c4-0.7,8.1-0.6,12.1,0.3c10.4,2.5,17.9,11.3,24.7,19.6l-2.4-1.2"/>
</svg>
